<svg xmlns="http://www.w3.org/2000/svg" version="1.1" xmlns:xlink="http://www.w3.org/1999/xlink" width="1500" height="1500" viewBox="0 0 1500 1500"><rect width="1500" height="1500" x="0" y="0" id="background" stroke="transparent" fill="#ffffff"></rect><svg xml:space="preserve" width="1000" height="1000" data-version="2" data-id="lg_qXrydhy5HOFYlkaAYA" viewBox="0 0 564 79" x="250" y="250"><rect width="100%" height="100%" fill="transparent"></rect><ellipse fill="none" stroke="#301c3b" stroke-width="1.5" paint-order="stroke" rx="140.58" ry="68" transform="rotate(44.992 -25.65 72.95)scale(.25 .2826)"></ellipse><path fill="#301c3b" d="M120.51 44.02h-14.09v-6.93h14.01q5.16 0 8.32-2.85t3.16-7.47q0-4.46-2.93-7.2-2.93-2.73-7.78-2.73h-14.78V9.91h14.78q5.86 0 10.17 2.08t6.7 5.85q2.38 3.77 2.38 8.93t-2.46 9.05q-2.46 3.89-6.97 6.04-4.5 2.16-10.51 2.16m-11.78 19.63h-8.16V9.91h8.16zm75.77 0h-7.39l-.31-9.62v-18.1q0-4.54-2.97-7.12-2.96-2.58-8.12-2.58-5.01 0-8.16 2.27-3.16 2.28-3.47 6.28h-7.62q.38-4.54 2.93-7.74 2.54-3.19 6.77-4.93 4.24-1.73 9.78-1.73 5.7 0 9.86 1.89 4.15 1.88 6.43 5.43 2.27 3.54 2.27 8.62zm-22.72.93q-4.16 0-7.31-1.5-3.16-1.5-4.93-4.32-1.77-2.81-1.77-6.58 0-6.54 5.04-10.16 5.05-3.62 14.13-3.62h10.86v5.77h-11.17q-5.23 0-8.2 2.01-2.96 2-2.96 5.62 0 3 2.12 4.69 2.11 1.7 5.73 1.7 4.62 0 8.2-2.51 3.58-2.5 5.82-6.89l.84 5.7q-2 4.85-6.16 7.47-4.15 2.62-10.24 2.62m69.92-.93h-15.56q-3.92 0-6.69-1.57-2.78-1.58-4.16-4.51-1.39-2.92-1.39-6.85V13.3l7.78-4.24v41.66q0 1.85.54 3.39t2.11 2.38q1.58.85 4.66.85h12.71zm-6.78-36.03h-31.03V21.3h31.03zm53.59 36.03h-7.77V37.01q0-4.54-2.54-7.27-2.54-2.74-6.63-2.74-4.69 0-8.35 3.43-3.66 3.43-5.81 10.66l-1.24-8.62q2.39-6.08 6.9-9.09 4.5-3 9.81-3 4.78 0 8.28 2.04 3.5 2.04 5.43 5.7 1.92 3.66 1.92 8.58zm-30.18 0h-7.78V6.98h7.78zm59.98 0h-7.77V16.53q0-3.93 1.46-6.85 1.46-2.93 4.35-4.62 2.89-1.7 7.12-1.7h12.63v6.32h-10.32q-2.08 0-3.81.54t-2.69 1.96q-.97 1.42-.97 4.12zm13.32-36.03h-31.1V21.3h31.1zm3.62 36.03h-38.19v-6.31h38.19zm31.73 0h-7.78V21.3h7.78zm14.55 0h-37.96v-6.31h37.96zm-18.48-36.03h-13.86V21.3h13.86zm4.31-13.55h-8.7v-8.4h8.7zm61.14 49.58h-7.78V36.94q0-4.47-2.54-7.2-2.54-2.74-6.62-2.74-4.7 0-8.35 3.43-3.66 3.43-5.82 10.66l-1.23-8.7q2.39-6 6.89-9.01 4.51-3 9.82-3 4.77 0 8.28 2.04 3.5 2.04 5.43 5.66 1.92 3.62 1.92 8.55zm-30.18 0h-7.78V21.3h7.39l.39 9.55zm55.44-43.27q4.39 0 8 1.73 3.62 1.74 5.86 4.82V7.06h7.7v56.59H458l-.23-5.92q-2.23 3.08-5.89 4.96-3.66 1.89-8.12 1.89-5.62 0-9.94-2.85-4.31-2.85-6.73-7.85-2.43-5.01-2.43-11.4 0-6.47 2.43-11.47 2.42-5.01 6.73-7.82 4.32-2.81 9.94-2.81m1.69 37.65q4.16 0 7.39-2.35 3.24-2.34 4.78-6.35V35.55q-1.54-4.08-4.78-6.35-3.23-2.27-7.39-2.27-3.85 0-6.78 1.96-2.92 1.96-4.58 5.47-1.65 3.5-1.65 8.12 0 4.54 1.65 8.05 1.66 3.5 4.58 5.5 2.93 2 6.78 2m47.66 6.55q-6.54 0-11.32-2.66-4.77-2.65-7.31-7.62-2.54-4.97-2.54-11.9 0-6.93 2.58-11.86 2.58-4.92 7.39-7.54t11.51-2.62q10.24 0 15.25 5.66 5 5.66 4.39 15.52H478.1l.08-5.86 26.95.08q-.31-4.08-3.55-6.54-3.23-2.47-8.16-2.47-6.62 0-10.16 4.16t-3.54 11.78q0 4.54 1.57 8.05 1.58 3.5 4.59 5.43 3 1.92 7.23 1.92 5.01 0 8.36-2.39 3.35-2.38 4.12-6.46h7.77q-1 7.16-6.39 11.24t-13.86 4.08m65.53-25.1h-7.78v-5.09q0-3.31-2-5.35-2-2.04-5.77-2.04-4.78 0-8.55 3.58-3.77 3.58-6.01 10.9l-1.07-7.86q1.69-4.38 4.11-7.31 2.43-2.93 5.63-4.43 3.19-1.5 7.04-1.5 6.39 0 10.4 3.66 4 3.66 4 10.35zM530 63.65h-7.78V21.3h7.31l.47 9.63zM43.715 5.892l2.596-4.732.583 5.364 4.21-3.378-1.513 5.182 5.182-1.513-3.378 4.21 5.364.583-4.732 2.596L56.76 16.8l-5.364.583 3.378 4.21-5.182-1.513 1.513 5.182-4.21-3.378-.583 5.364-2.596-4.732-2.596 4.732-.583-5.364-4.21 3.378 1.513-5.182-5.182 1.513 3.378-4.21-5.364-.583 4.732-2.596-4.732-2.596 5.364-.583-3.378-4.21 5.182 1.513-1.513-5.182 4.21 3.378.583-5.364z"></path></svg></svg>